<?xml version="1.0" encoding="UTF-8"?>
<!DOCTYPE svg PUBLIC "-//W3C//DTD SVG 1.1//EN" "http://www.w3.org/Graphics/SVG/1.1/DTD/svg11.dtd">
<svg xmlns="http://www.w3.org/2000/svg" version="1.1" width="1040px" height="622px" style="shape-rendering:geometricPrecision; text-rendering:geometricPrecision; image-rendering:optimizeQuality; fill-rule:evenodd; clip-rule:evenodd" xmlns:xlink="http://www.w3.org/1999/xlink">
<g><path style="opacity:1" fill="#e30201" d="M 466.5,-0.5 C 480.5,-0.5 494.5,-0.5 508.5,-0.5C 518.698,0.521729 529.031,1.6884 539.5,3C 541.662,8.14966 543.829,13.3163 546,18.5C 554.322,10.8751 562.988,10.5417 572,17.5C 573.582,20.7879 574.915,24.1213 576,27.5C 585.624,18.369 595.958,17.369 607,24.5C 615.287,37.7823 613.787,49.9489 602.5,61C 596.44,64.6902 590.773,68.8569 585.5,73.5C 595.118,87.1107 603.452,101.444 610.5,116.5C 607.496,118.442 604.162,119.275 600.5,119C 592.801,105.985 581.468,100.819 566.5,103.5C 566.5,105.167 566.5,106.833 566.5,108.5C 578.661,106.66 588.327,110.66 595.5,120.5C 593.711,121.877 591.711,122.877 589.5,123.5C 580.586,116.163 571.586,115.83 562.5,122.5C 537.441,83.3998 512.608,44.0665 488,4.5C 486.506,3.25278 485.006,3.25278 483.5,4.5C 509.971,48.7654 537.471,92.4321 566,135.5C 567.28,135.387 568.113,134.72 568.5,133.5C 566.857,130.555 565.524,127.555 564.5,124.5C 569.481,123.668 574.481,123.502 579.5,124C 582.521,124.849 583.021,126.349 581,128.5C 580.295,138.944 581.128,149.277 583.5,159.5C 583.16,161.512 582.827,163.512 582.5,165.5C 549.202,160.632 533.702,174.966 536,208.5C 536.67,212.011 537.837,215.344 539.5,218.5C 532.671,223.751 525.338,228.251 517.5,232C 501.829,231.139 486.162,231.472 470.5,233C 457.157,234.004 444.823,238.004 433.5,245C 422.39,256.362 420.557,269.195 428,283.5C 433.587,293.006 438.92,302.673 444,312.5C 448.581,331.601 456.248,349.268 467,365.5C 488.866,390.946 516.033,400.946 548.5,395.5C 548.444,396.737 547.944,397.737 547,398.5C 546.818,407.078 546.318,415.578 545.5,424C 546.044,424.717 546.711,425.217 547.5,425.5C 547.5,425.833 547.5,426.167 547.5,426.5C 394.167,426.5 240.833,426.5 87.5,426.5C 82.8237,283.05 136.49,167.217 248.5,79C 310.178,34.8362 375.345,9.33618 444,2.5C 451.616,2.00561 459.116,1.00561 466.5,-0.5 Z"/></g>
<g><path style="opacity:1" fill="#fee8e8" d="M 562.5,122.5 C 562.833,123.5 563.5,124.167 564.5,124.5C 565.524,127.555 566.857,130.555 568.5,133.5C 568.113,134.72 567.28,135.387 566,135.5C 537.471,92.4321 509.971,48.7654 483.5,4.5C 485.006,3.25278 486.506,3.25278 488,4.5C 512.608,44.0665 537.441,83.3998 562.5,122.5 Z"/></g>
<g><path style="opacity:1" fill="#fee7e6" d="M 463.5,3.5 C 465.288,3.21478 466.955,3.54811 468.5,4.5C 484.897,30.2356 500.897,56.2356 516.5,82.5C 515.38,84.5962 513.88,84.9295 512,83.5C 495.52,56.8463 479.354,30.1797 463.5,3.5 Z"/></g>
<g><path style="opacity:1" fill="#fee8e7" d="M 442.5,6.5 C 445.452,4.97718 447.952,5.64385 450,8.5C 476.418,50.9996 502.584,93.6663 528.5,136.5C 527.38,138.596 525.88,138.93 524,137.5C 497.271,93.335 470.104,49.6683 442.5,6.5 Z"/></g>
<g><path style="opacity:1" fill="#fee8e8" d="M 426.5,7.5 C 427.822,7.33003 428.989,7.66337 430,8.5C 465.167,66.1667 500.333,123.833 535.5,181.5C 534.537,183.49 533.204,183.823 531.5,182.5C 495.838,124.804 460.504,67.1376 425.5,9.5C 425.863,8.81654 426.196,8.14987 426.5,7.5 Z"/></g>
<g><path style="opacity:1" fill="#fee6e5" d="M 413.5,23.5 C 414.822,23.33 415.989,23.6634 417,24.5C 434.084,51.666 450.917,78.9994 467.5,106.5C 466.38,108.596 464.88,108.93 463,107.5C 445.864,80.2031 429.031,52.8697 412.5,25.5C 412.863,24.8165 413.196,24.1499 413.5,23.5 Z"/></g>
<g><path style="opacity:1" fill="#e30602" d="M 722.5,76.5 C 699.714,68.9278 681.214,74.9278 667,94.5C 663.748,99.3343 660.748,104.334 658,109.5C 656.989,110.337 655.822,110.67 654.5,110.5C 646.222,95.2766 638.388,79.61 631,63.5C 626.7,51.8327 623.867,39.8327 622.5,27.5C 623.5,26.6667 624.5,25.8333 625.5,25C 660.728,36.9446 693.062,54.1113 722.5,76.5 Z"/></g>
<g><path style="opacity:1" fill="#0a0603" d="M 722.5,76.5 C 743.173,90.8499 761.839,107.517 778.5,126.5C 778.351,127.552 778.517,128.552 779,129.5C 782.058,131.957 784.392,134.957 786,138.5C 789.394,146.681 792.394,155.014 795,163.5C 797.8,174.098 798.133,184.765 796,195.5C 792.091,207.408 783.924,214.242 771.5,216C 765.509,216.499 759.509,216.666 753.5,216.5C 765.52,253.872 781.353,289.538 801,323.5C 823.874,357.375 851.874,386.375 885,410.5C 885.497,413.146 885.664,415.813 885.5,418.5C 883.217,418.392 881.217,417.559 879.5,416C 843.792,389.712 814.125,357.879 790.5,320.5C 769.884,346.958 744.884,368.124 715.5,384C 704.733,388.39 694.399,393.223 684.5,398.5C 647.634,411.64 609.634,419.473 570.5,422C 608.499,422.5 646.499,422.667 684.5,422.5C 751.5,422.5 818.5,422.5 885.5,422.5C 886.167,422.5 886.5,422.833 886.5,423.5C 886.5,423.833 886.5,424.167 886.5,424.5C 773.57,425.498 660.57,425.831 547.5,425.5C 546.711,425.217 546.044,424.717 545.5,424C 546.318,415.578 546.818,407.078 547,398.5C 547.944,397.737 548.444,396.737 548.5,395.5C 516.033,400.946 488.866,390.946 467,365.5C 456.248,349.268 448.581,331.601 444,312.5C 438.92,302.673 433.587,293.006 428,283.5C 420.557,269.195 422.39,256.362 433.5,245C 444.823,238.004 457.157,234.004 470.5,233C 486.162,231.472 501.829,231.139 517.5,232C 525.338,228.251 532.671,223.751 539.5,218.5C 537.837,215.344 536.67,212.011 536,208.5C 533.702,174.966 549.202,160.632 582.5,165.5C 582.827,163.512 583.16,161.512 583.5,159.5C 581.128,149.277 580.295,138.944 581,128.5C 583.021,126.349 582.521,124.849 579.5,124C 574.481,123.502 569.481,123.668 564.5,124.5C 563.5,124.167 562.833,123.5 562.5,122.5C 571.586,115.83 580.586,116.163 589.5,123.5C 591.711,122.877 593.711,121.877 595.5,120.5C 588.327,110.66 578.661,106.66 566.5,108.5C 566.5,106.833 566.5,105.167 566.5,103.5C 581.468,100.819 592.801,105.985 600.5,119C 604.162,119.275 607.496,118.442 610.5,116.5C 611.583,116.539 612.583,116.873 613.5,117.5C 626.996,113.307 640.663,110.973 654.5,110.5C 655.822,110.67 656.989,110.337 658,109.5C 660.748,104.334 663.748,99.3343 667,94.5C 681.214,74.9278 699.714,68.9278 722.5,76.5 Z"/></g>
<g><path style="opacity:1" fill="#fd8f01" d="M 721.5,351.5 C 719.458,346.122 718.958,340.455 720,334.5C 733.049,294.843 727.716,257.843 704,223.5C 695.603,214.421 686.437,206.421 676.5,199.5C 677.912,197.77 677.578,196.27 675.5,195C 668.101,194.152 660.767,194.485 653.5,196C 646.048,201.203 643.381,208.369 645.5,217.5C 637.814,216.432 630.147,216.266 622.5,217C 634.03,202.669 634.864,187.835 625,172.5C 616.002,163.484 605.502,161.151 593.5,165.5C 592.914,165.291 592.414,164.957 592,164.5C 589.446,153.627 588.113,142.627 588,131.5C 609.115,123.597 630.948,118.931 653.5,117.5C 652.671,122.501 654.671,124.668 659.5,124C 664.641,109.523 672.975,97.1893 684.5,87C 696.849,79.4476 709.849,78.4476 723.5,84C 739.312,91.4654 752.478,102.299 763,116.5C 778.536,136.118 788.036,158.285 791.5,183C 788.785,204.051 776.785,213.051 755.5,210C 743.182,206.425 732.682,199.925 724,190.5C 714.039,172.079 704.206,153.579 694.5,135C 690.925,131.484 686.925,130.817 682.5,133C 680.667,134.833 678.833,136.667 677,138.5C 675.92,141.237 676.754,142.904 679.5,143.5C 682.122,142.05 684.622,140.383 687,138.5C 688.261,138.759 689.261,139.426 690,140.5C 699,157.833 708,175.167 717,192.5C 719.797,196.299 722.964,199.799 726.5,203C 732.59,206.46 738.423,210.294 744,214.5C 754.747,240.932 765.58,267.432 776.5,294C 762.776,317.558 744.443,336.724 721.5,351.5 Z"/></g>
<g><path style="opacity:0.996" fill="#fefcfc" d="M 260.5,120.5 C 264.687,120.395 268.687,121.228 272.5,123C 275.5,126 278.5,129 281.5,132C 288.167,132.333 294.833,132.667 301.5,133C 308.704,134.685 312.37,139.351 312.5,147C 311.72,151.287 310.554,155.453 309,159.5C 302.74,167.483 294.573,172.316 284.5,174C 276.49,176.068 268.49,177.735 260.5,179C 253.013,167.683 247.68,155.35 244.5,142C 245.166,131.19 250.5,124.023 260.5,120.5 Z"/></g>
<g><path style="opacity:1" fill="#e20200" d="M 778.5,126.5 C 781.075,127.568 783.242,129.235 785,131.5C 857.713,215.132 891.546,312.466 886.5,423.5C 886.5,422.833 886.167,422.5 885.5,422.5C 885.5,421.167 885.5,419.833 885.5,418.5C 885.664,415.813 885.497,413.146 885,410.5C 851.874,386.375 823.874,357.375 801,323.5C 781.353,289.538 765.52,253.872 753.5,216.5C 759.509,216.666 765.509,216.499 771.5,216C 783.924,214.242 792.091,207.408 796,195.5C 798.133,184.765 797.8,174.098 795,163.5C 792.394,155.014 789.394,146.681 786,138.5C 784.392,134.957 782.058,131.957 779,129.5C 778.517,128.552 778.351,127.552 778.5,126.5 Z"/></g>
<g><path style="opacity:1" fill="#140d06" d="M 609.5,136.5 C 622.815,136.573 632.981,142.239 640,153.5C 640.494,155.134 640.66,156.801 640.5,158.5C 639.448,158.649 638.448,158.483 637.5,158C 631.45,146.955 622.117,141.288 609.5,141C 608.272,139.51 608.272,138.01 609.5,136.5 Z"/></g>
<g><path style="opacity:1" fill="#0f0000" d="M 564.5,140.5 C 568.167,140.5 571.833,140.5 575.5,140.5C 575.5,141.5 575.5,142.5 575.5,143.5C 570.588,143.063 565.922,143.896 561.5,146C 557.326,149.008 553.659,152.508 550.5,156.5C 549.337,154.45 549.504,152.45 551,150.5C 554.802,146.037 559.302,142.703 564.5,140.5 Z"/></g>
<g><path style="opacity:0.998" fill="#fefdfd" d="M 374.5,167.5 C 388.285,166.039 400.118,170.039 410,179.5C 414.265,189.629 414.599,199.962 411,210.5C 406.379,224.038 401.046,237.038 395,249.5C 376.678,249.237 358.512,247.404 340.5,244C 324.02,239.876 316.853,229.376 319,212.5C 323.098,192.838 335.265,184.672 355.5,188C 357.859,183.451 360.359,178.951 363,174.5C 366.514,171.5 370.347,169.167 374.5,167.5 Z"/></g>
<g><path style="opacity:1" fill="#f98c00" d="M 597.5,171.5 C 617.751,170.585 626.918,180.252 625,200.5C 612.311,190.899 598.478,188.899 583.5,194.5C 583.83,184.17 588.497,176.503 597.5,171.5 Z"/></g>
<g><path style="opacity:1" fill="#fa8d00" d="M 562.5,172.5 C 568.037,172.288 573.537,172.622 579,173.5C 581.005,173.999 582.505,175.166 583.5,177C 579.586,182.908 577.586,189.408 577.5,196.5C 569.341,193.962 561.008,193.129 552.5,194C 549.671,195.247 547.005,196.747 544.5,198.5C 542.951,184.701 548.951,176.035 562.5,172.5 Z"/></g>
<g><path style="opacity:1" fill="#f9f9f9" d="M 599.5,197.5 C 603.054,196.348 606.72,196.515 610.5,198C 614.66,199.912 618.66,202.079 622.5,204.5C 623.614,205.723 623.781,207.056 623,208.5C 617.163,218.229 608.663,221.729 597.5,219C 589.41,215.271 584.91,209.105 584,200.5C 585.665,207.185 589.831,210.352 596.5,210C 601.731,206.759 602.731,202.593 599.5,197.5 Z"/></g>
<g><path style="opacity:1" fill="#f8f8f8" d="M 562.5,199.5 C 568.079,199.228 573.412,200.228 578.5,202.5C 580.341,206.54 581.841,210.54 583,214.5C 570.235,225.442 557.735,225.109 545.5,213.5C 544.04,210.971 543.54,208.304 544,205.5C 544.689,204.643 545.522,203.977 546.5,203.5C 547.948,210.798 552.281,213.964 559.5,213C 561.667,212.167 563.167,210.667 564,208.5C 564.597,205.319 564.097,202.319 562.5,199.5 Z"/></g>
<g><path style="opacity:1" fill="#fdfcfc" d="M 676.5,199.5 C 686.437,206.421 695.603,214.421 704,223.5C 727.716,257.843 733.049,294.843 720,334.5C 718.958,340.455 719.458,346.122 721.5,351.5C 684.001,374.28 643.335,388.446 599.5,394C 583.23,396.106 566.897,397.273 550.5,397.5C 550.286,395.856 550.62,394.356 551.5,393C 557.499,391.501 563.166,389.168 568.5,386C 607.698,380.938 643.698,367.605 676.5,346C 688.96,336.88 698.46,325.38 705,311.5C 706.656,306.54 708.156,301.54 709.5,296.5C 723.137,288.822 722.637,281.822 708,275.5C 707.5,274 707,272.5 706.5,271C 716.696,257.883 713.362,250.716 696.5,249.5C 689.06,237.144 680.06,225.978 669.5,216C 678.207,215.4 686.207,217.567 693.5,222.5C 695.946,221.573 696.779,219.906 696,217.5C 685.346,210.626 673.846,208.459 661.5,211C 658.057,212.618 655.057,214.785 652.5,217.5C 648.123,208.861 650.456,203.027 659.5,200C 665.157,199.501 670.824,199.334 676.5,199.5 Z"/></g>
<g><path style="opacity:1" fill="#fdfdfd" d="M 586.5,217.5 C 591.233,222.446 597.067,224.779 604,224.5C 611.822,223.006 619.655,221.506 627.5,220C 633.005,219.204 638.338,219.871 643.5,222C 646.601,223.966 649.768,225.8 653,227.5C 655.101,224.192 657.601,221.025 660.5,218C 662.256,217.86 663.922,218.36 665.5,219.5C 723.68,279.395 714.68,326.561 638.5,361C 629.319,364.727 619.985,368.061 610.5,371C 590.803,375.779 571.137,380.446 551.5,385C 512.791,394.439 483.624,381.939 464,347.5C 458.502,337.854 454.169,327.854 451,317.5C 460.753,327.259 471.087,336.259 482,344.5C 498.4,335.05 514.567,325.217 530.5,315C 544.034,305.077 553.534,292.244 559,276.5C 561.739,266.05 558.906,257.55 550.5,251C 541.226,246.021 531.56,242.021 521.5,239C 529.836,234.501 537.836,229.501 545.5,224C 549.514,223.495 553.181,224.495 556.5,227C 565.689,228.029 574.356,226.362 582.5,222C 584.041,220.629 585.375,219.129 586.5,217.5 Z"/></g>
<g><path style="opacity:1" fill="#e30100" d="M 479.5,239.5 C 503.791,237.257 526.458,242.09 547.5,254C 549.667,256.167 551.833,258.333 554,260.5C 556.241,271.83 554.241,282.497 548,292.5C 542.866,298.635 537.366,304.469 531.5,310C 515.503,320.668 499.169,330.834 482.5,340.5C 472.181,330.681 462.014,320.681 452,310.5C 446.919,301.335 441.585,292.335 436,283.5C 425.343,260.498 432.51,246.998 457.5,243C 464.955,241.675 472.288,240.509 479.5,239.5 Z"/></g>
<g><path style="opacity:1" fill="#fff6f5" d="M 472.5,244.5 C 481.884,244.184 491.218,244.684 500.5,246C 505.312,246.989 509.479,249.156 513,252.5C 513.571,256.615 511.737,259.115 507.5,260C 494.783,262.327 482.45,260.993 470.5,256C 464.849,251.1 465.516,247.267 472.5,244.5 Z"/></g>
<g><path style="opacity:0.998" fill="#fefefd" d="M 205.5,256.5 C 217.66,254.165 227.827,257.498 236,266.5C 238.707,271.416 241.541,276.249 244.5,281C 281.24,280.418 294.74,297.918 285,333.5C 278.494,341.914 269.994,347.414 259.5,350C 240.415,354.369 221.081,356.869 201.5,357.5C 199.626,357.61 198.126,356.944 197,355.5C 186.841,337.514 179.174,318.514 174,298.5C 171.631,285.977 175.131,275.477 184.5,267C 191.045,262.394 198.045,258.894 205.5,256.5 Z"/></g>
<g><path style="opacity:1" fill="#e2e2e2" d="M 700.5,255.5 C 705.267,255.351 707.6,257.684 707.5,262.5C 705.833,262.5 704.167,262.5 702.5,262.5C 701.551,260.263 700.884,257.929 700.5,255.5 Z"/></g>
<g><path style="opacity:0.999" fill="#e1e1e1" d="M 708.5,283.5 C 712.509,283.014 714.342,284.68 714,288.5C 709.007,291.339 707.174,289.672 708.5,283.5 Z"/></g>
<g><path style="opacity:1" fill="#151515" d="M 623.5,303.5 C 629.007,304.502 632.507,307.836 634,313.5C 635.482,321.689 632.315,324.522 624.5,322C 621.617,319.398 619.95,316.232 619.5,312.5C 623.155,312.472 625.822,314.139 627.5,317.5C 629.65,312.904 628.317,310.237 623.5,309.5C 623.5,307.5 623.5,305.5 623.5,303.5 Z"/></g>
<g><path style="opacity:1" fill="#131313" d="M 592.5,320.5 C 598.519,322.194 601.352,326.194 601,332.5C 596.833,338.759 592.167,339.092 587,333.5C 585.3,329.771 585.133,326.105 586.5,322.5C 587.833,322.5 589.167,322.5 590.5,322.5C 590.336,325.187 590.503,327.854 591,330.5C 592.11,332.037 593.61,332.703 595.5,332.5C 594.433,328.468 593.433,324.468 592.5,320.5 Z"/></g>
<g><path style="opacity:1" fill="#fd8f00" d="M 885.5,418.5 C 885.5,419.833 885.5,421.167 885.5,422.5C 818.5,422.5 751.5,422.5 684.5,422.5C 684.5,414.5 684.5,406.5 684.5,398.5C 694.399,393.223 704.733,388.39 715.5,384C 744.884,368.124 769.884,346.958 790.5,320.5C 814.125,357.879 843.792,389.712 879.5,416C 881.217,417.559 883.217,418.392 885.5,418.5 Z"/></g>
<g><path style="opacity:0.835" fill="#c9c9c9" d="M 592.5,320.5 C 593.433,324.468 594.433,328.468 595.5,332.5C 593.61,332.703 592.11,332.037 591,330.5C 590.503,327.854 590.336,325.187 590.5,322.5C 589.167,322.5 587.833,322.5 586.5,322.5C 588.374,321.715 590.374,321.048 592.5,320.5 Z"/></g>
<g><path style="opacity:1" fill="#141414" d="M 611.5,331.5 C 617.245,331.907 620.911,334.907 622.5,340.5C 620.973,346.19 617.306,348.024 611.5,346C 607.872,344.208 605.539,341.375 604.5,337.5C 604.833,335.833 605.833,334.833 607.5,334.5C 609.188,336.029 610.521,337.863 611.5,340C 613.025,341.009 614.692,341.509 616.5,341.5C 614.833,338.167 613.167,334.833 611.5,331.5 Z"/></g>
<g><path style="opacity:1" fill="#fdfdfd" d="M 684.5,398.5 C 684.5,406.5 684.5,414.5 684.5,422.5C 646.499,422.667 608.499,422.5 570.5,422C 609.634,419.473 647.634,411.64 684.5,398.5 Z"/></g>
<g><path style="opacity:1" fill="#650000" d="M 886.5,424.5 C 773.838,426.498 660.838,427.165 547.5,426.5C 547.5,426.167 547.5,425.833 547.5,425.5C 660.57,425.831 773.57,425.498 886.5,424.5 Z"/></g>
<g><path style="opacity:0.973" fill="#fe0000" d="M -0.5,560.5 C -0.5,557.833 -0.5,555.167 -0.5,552.5C 8.39655,540.257 17.7299,528.257 27.5,516.5C 22.3333,507.5 17.1667,498.5 12,489.5C 8.6239,484.623 4.45723,480.623 -0.5,477.5C -0.5,474.833 -0.5,472.167 -0.5,469.5C 3.92318,465.705 8.58985,465.538 13.5,469C 23.9633,479.415 31.7966,491.582 37,505.5C 42.7145,496.779 49.5478,488.946 57.5,482C 62.4669,478.23 67.6336,477.73 73,480.5C 75,483.833 75,487.167 73,490.5C 69.9113,491.96 67.0779,493.793 64.5,496C 57.6477,503.351 50.981,510.851 44.5,518.5C 50.5966,529.51 58.2632,539.344 67.5,548C 70.7835,549.125 74.1169,550.125 77.5,551C 81.4782,558.209 79.4782,562.375 71.5,563.5C 60.2093,561.717 51.3759,556.051 45,546.5C 41.4145,540.998 38.0812,535.331 35,529.5C 27.2198,540.947 19.0531,552.114 10.5,563C 6.25856,564.188 2.59189,563.355 -0.5,560.5 Z"/></g>
<g><path style="opacity:0.975" fill="#fe0000" d="M 638.5,466.5 C 645.936,466.136 651.769,469.136 656,475.5C 662.679,484.851 668.346,494.851 673,505.5C 679.79,495.043 688.29,486.21 698.5,479C 708.174,476.672 711.674,480.172 709,489.5C 697.98,497.687 688.48,507.353 680.5,518.5C 686.51,529.67 694.176,539.504 703.5,548C 707.951,548.616 711.784,550.449 715,553.5C 715.985,562.121 712.152,565.288 703.5,563C 694.14,560.067 686.64,554.567 681,546.5C 677.415,540.998 674.081,535.331 671,529.5C 663.554,540.613 655.721,551.446 647.5,562C 637.409,565.58 633.576,562.08 636,551.5C 644.976,539.69 654.143,528.023 663.5,516.5C 657.532,506.036 651.366,495.703 645,485.5C 642,482.833 639,480.167 636,477.5C 634.813,473.217 635.647,469.55 638.5,466.5 Z"/></g>
<g><path style="opacity:0.974" fill="#fe0000" d="M 249.5,621.5 C 246.5,621.5 243.5,621.5 240.5,621.5C 231.762,617.359 228.262,610.359 230,600.5C 231,599.5 232,598.5 233,597.5C 235.493,584.513 241.16,573.18 250,563.5C 249.662,554.795 248.662,546.129 247,537.5C 239.866,555.651 227.032,561.818 208.5,556C 203.745,553.333 200.245,549.499 198,544.5C 194.833,553 189,558.833 180.5,562C 170.908,563.587 161.242,563.92 151.5,563C 147.876,560.839 146.709,557.672 148,553.5C 154.943,548.286 158.776,541.286 159.5,532.5C 159.179,524.692 155.346,519.692 148,517.5C 142.945,518.027 138.945,520.361 136,524.5C 127.18,538.954 121.514,554.62 119,571.5C 116.488,587.105 114.488,602.771 113,618.5C 111.855,619.636 110.688,620.636 109.5,621.5C 107.5,621.5 105.5,621.5 103.5,621.5C 101.59,620.025 100.424,618.025 100,615.5C 99.7774,595.483 99.1108,575.483 98,555.5C 97.0928,546.224 95.5928,537.057 93.5,528C 93.1256,523.371 95.2923,520.871 100,520.5C 105.565,521.916 108.565,525.583 109,531.5C 109.833,536.5 110.667,541.5 111.5,546.5C 114.379,533.244 120.046,521.411 128.5,511C 141.804,500.709 154.637,501.209 167,512.5C 174.52,524.219 175.353,536.386 169.5,549C 174.63,549.521 178.797,547.688 182,543.5C 189.03,533.772 194.197,523.105 197.5,511.5C 202.174,507.246 206.34,507.579 210,512.5C 210.102,520.504 210.102,528.504 210,536.5C 213.034,543.734 218.201,545.901 225.5,543C 235.427,532.904 240.927,520.737 242,506.5C 245.419,503.152 249.252,502.652 253.5,505C 257.625,519.913 260.625,535.08 262.5,550.5C 266.896,548.641 271.229,546.474 275.5,544C 284.536,539.721 293.869,538.721 303.5,541C 306.833,543 309.5,545.667 311.5,549C 312.167,549.667 312.833,549.667 313.5,549C 323.458,536.589 330.958,522.756 336,507.5C 340.341,504.552 344.341,504.885 348,508.5C 347.007,519.468 346.34,530.468 346,541.5C 346.312,546.491 348.812,548.325 353.5,547C 358.688,542.476 363.188,537.309 367,531.5C 371.547,523.073 375.547,514.406 379,505.5C 382.667,502.833 386.333,502.833 390,505.5C 390.985,507.366 391.485,509.366 391.5,511.5C 388.965,521.025 388.132,530.692 389,540.5C 390.838,546.002 394.671,548.835 400.5,549C 404.5,553 404.5,557 400.5,561C 386.68,563.002 378.18,557.168 375,543.5C 368.516,558.492 357.349,563.992 341.5,560C 336.776,556.725 333.943,552.225 333,546.5C 329.815,554.417 324.315,559.917 316.5,563C 307.27,565.039 300.27,562.039 295.5,554C 283.946,555.193 274.112,560.027 266,568.5C 266.095,575.325 266.595,582.158 267.5,589C 267.397,598.252 264.897,606.752 260,614.5C 257.002,617.738 253.502,620.071 249.5,621.5 Z M 251.5,586.5 C 253.71,593.881 252.21,600.548 247,606.5C 246.926,599.538 248.426,592.871 251.5,586.5 Z"/></g>
<g><path style="opacity:0.973" fill="#fe0000" d="M 1039.5,552.5 C 1039.5,554.167 1039.5,555.833 1039.5,557.5C 1038.64,558.688 1037.64,559.855 1036.5,561C 1022.64,562.987 1014.14,557.153 1011,543.5C 1004.44,558.532 993.27,564.032 977.5,560C 973.163,556.836 970.163,552.67 968.5,547.5C 964.852,554.985 959.186,560.152 951.5,563C 942.621,564.821 935.955,561.821 931.5,554C 919.946,555.193 910.112,560.027 902,568.5C 902.005,574.643 902.172,580.81 902.5,587C 903.506,596.978 901.34,606.144 896,614.5C 892.846,617.512 889.346,619.845 885.5,621.5C 882.5,621.5 879.5,621.5 876.5,621.5C 867.237,617.615 863.737,610.615 866,600.5C 867,599.5 868,598.5 869,597.5C 869.892,591.6 871.558,585.933 874,580.5C 877.788,573.721 881.954,567.221 886.5,561C 885.582,553.313 884.082,545.813 882,538.5C 875.668,555.084 863.834,561.25 846.5,557C 840.333,554.833 836.167,550.667 834,544.5C 830.167,552.333 824.333,558.167 816.5,562C 806.894,563.557 797.228,563.891 787.5,563C 786.069,562.535 784.903,561.701 784,560.5C 783.333,557.833 783.333,555.167 784,552.5C 794.252,545.077 797.252,535.41 793,523.5C 785.117,515.246 777.784,515.913 771,525.5C 762.699,539.4 757.366,554.4 755,570.5C 752.416,586.426 750.416,602.426 749,618.5C 747.855,619.636 746.688,620.636 745.5,621.5C 743.5,621.5 741.5,621.5 739.5,621.5C 737.856,620.684 736.69,619.35 736,617.5C 735.736,597.485 735.069,577.485 734,557.5C 733.077,546.965 731.41,536.632 729,526.5C 729.768,522.735 732.102,520.735 736,520.5C 741.86,522.175 744.86,526.175 745,532.5C 745.966,538.13 746.633,543.796 747,549.5C 749.381,534.995 755.214,522.162 764.5,511C 777.804,500.709 790.637,501.209 803,512.5C 810.114,524.11 810.947,536.11 805.5,548.5C 807.898,549.724 810.231,549.558 812.5,548C 823.134,537.574 830.301,525.074 834,510.5C 838.733,507.423 842.733,508.09 846,512.5C 846.769,518.942 846.269,525.275 844.5,531.5C 845.842,542.037 851.508,545.87 861.5,543C 871.426,532.911 876.926,520.745 878,506.5C 883.121,502.125 887.455,502.791 891,508.5C 893.773,522.53 896.606,536.53 899.5,550.5C 910.679,542.828 923.012,539.328 936.5,540C 941.232,541.235 944.565,544.068 946.5,548.5C 947.365,549.583 948.365,549.749 949.5,549C 959.458,536.589 966.958,522.756 972,507.5C 976.341,504.552 980.341,504.885 984,508.5C 984.386,515.247 983.72,521.914 982,528.5C 981.333,533.167 981.333,537.833 982,542.5C 982.58,546.426 984.747,547.926 988.5,547C 995.037,542.458 1000.2,536.625 1004,529.5C 1008.16,522.184 1011.49,514.517 1014,506.5C 1020.94,501.554 1025.44,503.221 1027.5,511.5C 1025.9,518.958 1024.56,526.458 1023.5,534C 1023.6,542.758 1027.93,547.758 1036.5,549C 1037.64,550.145 1038.64,551.312 1039.5,552.5 Z M 887.5,586.5 C 889.646,593.557 888.146,599.89 883,605.5C 883.077,598.858 884.577,592.524 887.5,586.5 Z"/></g>
<g><path style="opacity:0.966" fill="#fe0000" d="M 523.5,525.5 C 528.599,525.175 533.599,525.675 538.5,527C 542.41,530.925 542.41,534.925 538.5,539C 525.813,539.78 513.147,540.447 500.5,541C 495.521,537.194 495.187,533.027 499.5,528.5C 507.58,527.111 515.58,526.111 523.5,525.5 Z"/></g>
</svg>
