<svg width="98" height="53" xmlns="http://www.w3.org/2000/svg">

 <g>
  <title>background</title>
  <rect fill="none" id="canvas_background" height="55" width="100" y="-1" x="-1"/>
 </g>
 <g>
  <title>Layer 1</title>
  <g stroke="null" id="svg_72">
   <g stroke="null" id="svg_1">
    <path stroke="null" id="svg_2" opacity="0.999" d="m-0.5,-0.5c15.659231,0 31.318461,0 46.977692,0c-15.751706,1.330427 -28.30782,8.510304 -37.668464,21.539621c-6.65325,9.865401 -9.674128,20.826392 -9.062626,32.882972c-0.082201,0 -0.164401,0 -0.246602,0c0,-18.140822 0,-36.281771 0,-54.422593z" fill="#fefdfd"/>
   </g>
   <g stroke="null" id="svg_3">
    <path stroke="null" id="svg_4" d="m51.03983,-0.5c15.782532,0 31.565063,0 47.347595,0c0,16.101568 0,32.203263 0,48.30483c-0.727969,-11.017452 -4.406409,-20.831363 -11.035442,-29.44173c-0.784934,-0.917282 -1.586391,-1.809456 -2.40437,-2.676521c-2.114859,-2.356868 -4.41652,-4.481146 -6.904858,-6.372669c-3.642436,-2.733212 -7.588069,-4.9424 -11.836899,-6.627576c-0.16436,0.127453 -0.328844,0.254907 -0.493204,0.38236c0.187048,2.005135 0.70072,3.916935 1.541263,5.735402c0.778029,1.651439 1.579486,3.265853 2.40437,4.843228c-1.706116,0.060285 -3.391272,0.357762 -5.055342,0.892174c-0.113067,-0.079913 -0.236368,-0.122483 -0.369903,-0.127453c-0.931046,-1.881849 -1.958514,-3.708702 -3.082526,-5.480495c0.504548,-0.537624 1.07987,-0.983711 1.726214,-1.33826c1.604886,-1.274814 1.954198,-2.825501 1.048059,-4.652048c-0.489012,-0.571272 -1.105517,-0.868671 -1.849515,-0.892174c-0.76237,0.202906 -1.461117,0.542786 -2.096117,1.019627c-0.381863,-1.610297 -1.347804,-2.183837 -2.897574,-1.720621c-0.303321,0.185802 -0.570514,0.419462 -0.801457,0.700994c-0.24352,-0.713229 -0.510713,-1.414224 -0.801457,-2.102981c-1.493792,-0.20003 -2.973404,-0.348726 -4.438837,-0.446087z" fill="#fefdfd"/>
   </g>
   <g stroke="null" id="svg_5">
    <path stroke="null" id="svg_6" d="m46.477692,-0.5c1.520672,0 3.041466,0 4.562138,0c1.465433,0.09736 2.945045,0.246056 4.438837,0.446087c0.290744,0.688757 0.557937,1.389752 0.801457,2.102981c0.230943,-0.281532 0.498136,-0.515192 0.801457,-0.700994c1.549771,-0.463217 2.515711,0.110324 2.897574,1.720621c0.635,-0.476841 1.333747,-0.816721 2.096117,-1.019627c0.743998,0.023502 1.360504,0.320902 1.849515,0.892174c0.906139,1.826547 0.556827,3.377234 -1.048059,4.652048c-0.646344,0.35455 -1.221667,0.800637 -1.726214,1.33826c1.124012,1.771793 2.15148,3.598646 3.082526,5.480495c-0.370396,0.247514 -0.781482,0.353683 -1.23301,0.318633c-0.949295,-1.658806 -2.346665,-2.31723 -4.192235,-1.975527c0,0.212465 0,0.424802 0,0.637267c1.499464,-0.234514 2.691292,0.275299 3.57573,1.529441c-0.220586,0.175503 -0.467188,0.302957 -0.739806,0.38236c-1.099105,-0.935125 -2.208815,-0.977567 -3.329128,-0.127453c-3.0898,-4.983453 -6.151735,-9.996615 -9.185927,-15.039499c-0.184212,-0.158962 -0.369163,-0.158962 -0.554855,0c3.263902,5.641775 6.65468,11.207243 10.172335,16.696393c0.157825,-0.014402 0.260535,-0.099414 0.308253,-0.254907c-0.202584,-0.37535 -0.366944,-0.75771 -0.493204,-1.14708c0.614162,-0.106041 1.230668,-0.127198 1.849515,-0.063727c0.372492,0.108208 0.434143,0.299388 0.184952,0.57354c-0.086927,1.331123 0.015783,2.648099 0.308253,3.951055c-0.041922,0.256436 -0.082982,0.511343 -0.123301,0.76472c-4.105678,-0.620443 -6.016844,1.206474 -5.733498,5.480495c0.082612,0.447489 0.226504,0.872291 0.431554,1.274534c-0.842023,0.669258 -1.746189,1.242798 -2.712623,1.720621c-1.93225,-0.109737 -3.864008,-0.067295 -5.795148,0.127453c-1.645206,0.127963 -3.166001,0.637777 -4.562138,1.529441c-1.369874,1.448125 -1.595885,3.083734 -0.678156,4.906955c0.688883,1.211572 1.346447,2.443664 1.972816,3.696148c0.564842,2.434487 1.510191,4.686206 2.835924,6.755029c2.6961,3.243179 6.045819,4.517712 10.049034,3.823601c-0.006905,0.15766 -0.068555,0.285113 -0.184952,0.38236c-0.022441,1.093295 -0.084091,2.176649 -0.184952,3.250061c0.067076,0.091384 0.149318,0.155111 0.246602,0.19118c0,0.042442 0,0.085011 0,0.127453c-18.906117,0 -37.812357,0 -56.718473,0c-0.611503,-12.05658 2.409376,-23.01757 9.062626,-32.882972c9.360644,-13.029317 21.916758,-20.209194 37.668464,-21.539621z" fill="#e30100"/>
   </g>
   <g stroke="null" id="svg_7">
    <path stroke="null" id="svg_8" d="m58.314591,15.176766c0.041059,0.127453 0.123301,0.212465 0.246602,0.254907c0.12626,0.38937 0.290621,0.77173 0.493204,1.14708c-0.047717,0.155493 -0.150427,0.240505 -0.308253,0.254907c-3.517655,-5.489149 -6.908433,-11.054618 -10.172335,-16.696393c0.185691,-0.158962 0.370643,-0.158962 0.554855,0c3.034192,5.042884 6.096126,10.056046 9.185927,15.039499z" fill="#fee8e8"/>
   </g>
   <g stroke="null" id="svg_9">
    <path stroke="null" id="svg_10" d="m46.107789,0.009814c0.220462,-0.036352 0.426005,0.006132 0.616505,0.127453c2.021767,3.280089 3.994583,6.593877 5.918449,9.941364c-0.138097,0.267168 -0.323049,0.309648 -0.554855,0.127453c-2.032001,-3.397104 -4.025285,-6.795852 -5.9801,-10.19627z" fill="#fee7e6"/>
   </g>
   <g stroke="null" id="svg_11">
    <path stroke="null" id="svg_12" d="m43.518467,0.392174c0.363985,-0.194089 0.672237,-0.109119 0.924758,0.254907c3.257367,5.416718 6.483661,10.854733 9.679131,16.314032c-0.138097,0.267142 -0.323049,0.309712 -0.554855,0.127453c-3.295713,-5.628978 -6.645432,-11.194447 -10.049034,-16.696393z" fill="#fee8e7"/>
   </g>
   <g stroke="null" id="svg_13">
    <path stroke="null" id="svg_14" d="m41.545651,0.519627c0.163004,-0.021663 0.306896,0.020822 0.431554,0.127453c4.336127,7.349816 8.672131,14.69958 13.008259,22.049434c-0.118739,0.253632 -0.283099,0.296074 -0.493204,0.127453c-4.397161,-7.35355 -8.75388,-14.703328 -13.069909,-22.049434c0.044758,-0.087109 0.085818,-0.172079 0.123301,-0.254907z" fill="#fee8e8"/>
   </g>
   <g stroke="null" id="svg_15">
    <path stroke="null" id="svg_16" d="m39.942738,2.558881c0.163004,-0.021667 0.306896,0.020826 0.431554,0.127453c2.106475,3.462398 4.182001,6.946133 6.226702,10.451177c-0.138097,0.267142 -0.323049,0.309712 -0.554855,0.127453c-2.112886,-3.479082 -4.188413,-6.962816 -6.226702,-10.451177c0.044758,-0.087114 0.085818,-0.172075 0.123301,-0.254907z" fill="#fee6e5"/>
   </g>
   <g stroke="null" id="svg_17">
    <path stroke="null" id="svg_18" d="m78.042756,9.31391c-2.809537,-0.965102 -5.090606,-0.200382 -6.843207,2.294161c-0.400975,0.616148 -0.770878,1.253377 -1.109709,1.911801c-0.124657,0.106678 -0.26855,0.14912 -0.431554,0.127453c-0.824884,-1.577376 -1.626341,-3.191789 -2.40437,-4.843228c-0.840543,-1.818467 -1.354215,-3.730267 -1.541263,-5.735402c0.16436,-0.127453 0.328844,-0.254907 0.493204,-0.38236c4.24883,1.685176 8.194463,3.894363 11.836899,6.627576z" fill="#e20000"/>
   </g>
   <g stroke="null" id="svg_19">
    <path stroke="null" id="svg_20" d="m78.042756,9.31391c2.488338,1.891523 4.789998,4.015801 6.904858,6.372669c-0.018372,0.134081 0.002096,0.261534 0.061651,0.38236c0.377055,0.313153 0.664839,0.695513 0.863107,1.14708c0.418484,1.042696 0.788387,2.104765 1.109709,3.186334c0.345243,1.350751 0.386302,2.710296 0.123301,4.078508c-0.481984,1.517715 -1.488983,2.388731 -3.020875,2.612794c-0.738696,0.063599 -1.478503,0.084884 -2.219419,0.063727c1.482078,4.763188 3.434304,9.30894 5.856799,13.637511c2.820388,4.317483 6.272817,8.013631 10.357286,11.088444c0.061281,0.337242 0.081872,0.67716 0.061651,1.019627c-0.281496,-0.013765 -0.528098,-0.119934 -0.739806,-0.318633c-4.402833,-3.350494 -8.060805,-7.407718 -10.973792,-12.171798c-2.541974,3.372161 -5.6245,6.06984 -9.247577,8.09329c-1.327582,0.55952 -2.601775,1.175503 -3.822332,1.848074c-4.545616,1.674737 -9.231055,2.67308 -14.056317,2.995154c4.685316,0.063727 9.370755,0.085011 14.056317,0.063727c0.041059,0 0.082242,0 0.123301,0c8.261169,0.085011 16.522338,0.169895 24.783507,0.254907c-13.924385,0.127198 -27.857402,0.16964 -41.799049,0.127453c-0.097285,-0.036069 -0.179526,-0.099796 -0.246602,-0.19118c0.10086,-1.073412 0.162511,-2.156766 0.184952,-3.250061c0.116396,-0.097247 0.178047,-0.2247 0.184952,-0.38236c-4.003215,0.694111 -7.352934,-0.580423 -10.049034,-3.823601c-1.325733,-2.068823 -2.271082,-4.320542 -2.835924,-6.755029c-0.626369,-1.252484 -1.283934,-2.484576 -1.972816,-3.696148c-0.91773,-1.823221 -0.691719,-3.45883 0.678156,-4.906955c1.396138,-0.891664 2.916932,-1.401477 4.562138,-1.529441c1.931141,-0.194749 3.862898,-0.237191 5.795148,-0.127453c0.966433,-0.477823 1.8706,-1.051363 2.712623,-1.720621c-0.20505,-0.402243 -0.348942,-0.827045 -0.431554,-1.274534c-0.283346,-4.274022 1.62782,-6.100938 5.733498,-5.480495c0.040319,-0.253377 0.081379,-0.508284 0.123301,-0.76472c-0.29247,-1.302956 -0.39518,-2.619932 -0.308253,-3.951055c0.249191,-0.274152 0.187541,-0.465332 -0.184952,-0.57354c-0.618848,-0.063472 -1.235353,-0.042315 -1.849515,0.063727c-0.123301,-0.042442 -0.205543,-0.127453 -0.246602,-0.254907c1.120313,-0.850114 2.230022,-0.807672 3.329128,0.127453c0.272619,-0.079403 0.519221,-0.206857 0.739806,-0.38236c-0.884438,-1.254141 -2.076266,-1.763955 -3.57573,-1.529441c0,-0.212465 0,-0.424802 0,-0.637267c1.84557,-0.341703 3.24294,0.316722 4.192235,1.975527c0.451528,0.03505 0.862614,-0.071119 1.23301,-0.318633c0.133535,0.004971 0.256836,0.04754 0.369903,0.127453c1.664071,-0.534412 3.349226,-0.831888 5.055342,-0.892174c0.163004,0.021667 0.306896,-0.020775 0.431554,-0.127453c0.338831,-0.658424 0.708734,-1.295653 1.109709,-1.911801c1.752601,-2.494543 4.03367,-3.259263 6.843207,-2.294161z" fill="#090503"/>
   </g>
   <g stroke="null" id="svg_21">
    <path stroke="null" id="svg_22" d="m77.919455,44.363589c-0.251781,-0.685444 -0.313431,-1.407723 -0.184952,-2.166707c1.608955,-5.054419 0.951391,-9.770194 -1.972816,-14.147325c-1.035359,-1.157149 -2.165536,-2.176776 -3.390778,-3.058881c0.174101,-0.220494 0.132919,-0.411674 -0.123301,-0.57354c-0.912304,-0.10808 -1.816594,-0.065638 -2.712623,0.127453c-0.918839,0.66314 -1.247683,1.576471 -0.986408,2.740248c-0.947692,-0.13612 -1.893041,-0.157277 -2.835924,-0.063727c1.421661,-1.826534 1.524494,-3.717178 0.308253,-5.671675c-1.109463,-1.14912 -2.404123,-1.446468 -3.883982,-0.892174c-0.072254,-0.026638 -0.133905,-0.069207 -0.184952,-0.127453c-0.314911,-1.385801 -0.479271,-2.787788 -0.493204,-4.205961c2.603501,-1.007264 5.295533,-1.601962 8.076217,-1.784347c-0.102217,0.637394 0.144386,0.913586 0.739806,0.828447c0.633891,-1.845143 1.661481,-3.417114 3.082526,-4.715775c1.522644,-0.962579 3.125558,-1.090032 4.80874,-0.38236c1.949636,0.95149 3.573017,2.332269 4.870391,4.142235c1.915605,2.50038 3.086965,5.325639 3.514079,8.47565c-0.334762,2.683021 -1.814375,3.830101 -4.438837,3.441241c-1.518822,-0.455646 -2.813483,-1.284093 -3.883982,-2.485341c-1.228202,-2.347819 -2.440621,-4.705706 -3.63738,-7.073663c-0.440801,-0.448126 -0.934005,-0.533137 -1.479612,-0.254907c-0.226011,0.233622 -0.452145,0.467372 -0.678156,0.700994c-0.133165,0.34884 -0.030332,0.561305 0.308253,0.637267c0.323295,-0.184807 0.631548,-0.397272 0.924758,-0.637267c0.155483,0.03301 0.278784,0.118022 0.369903,0.254907c1.109709,2.209149 2.219419,4.418426 3.329128,6.627576c0.344873,0.484195 0.735367,0.930282 1.17136,1.33826c0.750903,0.440989 1.470118,0.929645 2.157768,1.465714c1.325116,3.368848 2.660836,6.746362 4.007283,10.132544c-1.692183,3.002547 -3.952661,5.445318 -6.781557,7.328569z" fill="#fd8f01"/>
   </g>
   <g stroke="null" id="svg_23">
    <path stroke="null" id="svg_24" opacity="0.996" d="m21.07768,14.921859c0.516261,-0.013383 1.009466,0.092786 1.479612,0.318633c0.369903,0.38236 0.739806,0.76472 1.109709,1.14708c0.822048,0.042442 1.643973,0.085011 2.466021,0.127453c0.888261,0.214759 1.340282,0.809456 1.356311,1.784347c-0.096175,0.546393 -0.239944,1.077363 -0.431554,1.593167c-0.771864,1.01746 -1.778864,1.633442 -3.020875,1.848074c-0.987641,0.263574 -1.974049,0.476038 -2.959225,0.637267c-0.923155,-1.44239 -1.580719,-3.014272 -1.972816,-4.715775c0.082118,-1.377771 0.739806,-2.291229 1.972816,-2.740248z" fill="#fefcfc"/>
   </g>
   <g stroke="null" id="svg_25">
    <path stroke="null" id="svg_26" d="m84.947613,15.686579c0.817979,0.867065 1.619436,1.759239 2.40437,2.676521c6.629033,8.610368 10.307473,18.424278 11.035442,29.44173c0,1.741905 0,3.483683 0,5.225589c-0.082242,0.127453 -0.16436,0.254907 -0.246602,0.38236c0,-0.169895 0,-0.339918 0,-0.509814c0.020221,-0.342467 -0.00037,-0.682385 -0.061651,-1.019627c-4.08447,-3.074813 -7.536899,-6.770961 -10.357286,-11.088444c-2.422495,-4.328572 -4.374721,-8.874324 -5.856799,-13.637511c0.740916,0.021157 1.480722,-0.000127 2.219419,-0.063727c1.531892,-0.224063 2.538891,-1.095079 3.020875,-2.612794c0.263001,-1.368212 0.221942,-2.727757 -0.123301,-4.078508c-0.321322,-1.081569 -0.691226,-2.143638 -1.109709,-3.186334c-0.198268,-0.451567 -0.486053,-0.833927 -0.863107,-1.14708c-0.059554,-0.120826 -0.080022,-0.248279 -0.061651,-0.38236z" fill="#e20000"/>
   </g>
   <g stroke="null" id="svg_27">
    <path stroke="null" id="svg_28" d="m64.109739,16.961113c1.641753,0.009304 2.895231,0.731455 3.760681,2.166707c0.060911,0.208259 0.081379,0.420724 0.061651,0.637267c-0.129713,0.018991 -0.253014,-0.002167 -0.369903,-0.063727c-0.745971,-1.407723 -1.89674,-2.130001 -3.452429,-2.166707c-0.151414,-0.189906 -0.151414,-0.381086 0,-0.57354z" fill="#140d06"/>
   </g>
   <g stroke="null" id="svg_29">
    <path stroke="null" id="svg_30" d="m58.561193,17.470926c0.452145,0 0.904166,0 1.356311,0c0,0.127453 0,0.254907 0,0.38236c-0.605655,-0.055697 -1.180977,0.050472 -1.726214,0.318633c-0.514658,0.38338 -0.966803,0.829467 -1.356311,1.33826c-0.143399,-0.261279 -0.122808,-0.516186 0.061651,-0.76472c0.468791,-0.568824 1.023645,-0.993754 1.664564,-1.274534z" fill="#0f0000"/>
   </g>
   <g stroke="null" id="svg_31">
    <path stroke="null" id="svg_32" opacity="0.998" d="m35.133997,20.912168c1.699705,-0.186209 3.158726,0.323604 4.377187,1.529441c0.525879,1.290975 0.567061,2.607951 0.123301,3.951055c-0.569774,1.725464 -1.227338,3.382358 -1.972816,4.970682c-2.259121,-0.03352 -4.499008,-0.267142 -6.719906,-0.700994c-2.032001,-0.525618 -2.915699,-1.863878 -2.650972,-4.014781c0.505288,-2.505988 2.005491,-3.546773 4.500488,-3.122608c0.290867,-0.579785 0.59912,-1.153326 0.924758,-1.720621c0.43328,-0.38236 0.905893,-0.679709 1.417962,-0.892174z" fill="#fefdfd"/>
   </g>
   <g stroke="null" id="svg_33">
    <path stroke="null" id="svg_34" d="m62.630127,21.421981c2.496969,-0.11662 3.62727,1.115472 3.390778,3.696148c-1.564567,-1.22368 -3.27019,-1.478587 -5.116993,-0.76472c0.040689,-1.316593 0.616135,-2.293778 1.726214,-2.931428z" fill="#f98c00"/>
   </g>
   <g stroke="null" id="svg_35">
    <path stroke="null" id="svg_36" d="m58.314591,21.549434c0.682718,-0.02702 1.360873,0.015549 2.034467,0.127453c0.247219,0.063599 0.43217,0.212337 0.554855,0.446087c-0.4826,0.752995 -0.729202,1.581442 -0.739806,2.485341c-1.006013,-0.323477 -2.033481,-0.429645 -3.082526,-0.318633c-0.348819,0.158934 -0.677539,0.350114 -0.986408,0.57354c-0.190993,-1.758729 0.548813,-2.86324 2.219419,-3.313788z" fill="#fa8d00"/>
   </g>
   <g stroke="null" id="svg_37">
    <path stroke="null" id="svg_38" d="m62.876729,24.735769c0.438212,-0.146826 0.890233,-0.125542 1.356311,0.063727c0.512932,0.243691 1.006136,0.519882 1.479612,0.828447c0.137357,0.155875 0.157949,0.325771 0.061651,0.509814c-0.719708,1.239994 -1.767767,1.686081 -3.144176,1.33826c-0.997505,-0.475274 -1.55236,-1.261151 -1.664564,-2.357888c0.205296,0.852026 0.718968,1.255671 1.541263,1.210807c0.644988,-0.413076 0.768289,-0.944047 0.369903,-1.593167z" fill="#f9f9f9"/>
   </g>
   <g stroke="null" id="svg_39">
    <path stroke="null" id="svg_40" d="m58.314591,24.990676c0.687896,-0.034667 1.345461,0.092786 1.972816,0.38236c0.226997,0.514912 0.411949,1.024725 0.554855,1.529441c-1.573938,1.394595 -3.115201,1.352153 -4.623789,-0.127453c-0.18002,-0.32233 -0.24167,-0.662248 -0.184952,-1.019627c0.084954,-0.109228 0.187664,-0.194111 0.308253,-0.254907c0.17854,0.930155 0.712803,1.333672 1.602913,1.210807c0.267193,-0.106169 0.452145,-0.297349 0.554855,-0.57354c0.073611,-0.405429 0.01196,-0.787789 -0.184952,-1.14708z" fill="#f8f8f8"/>
   </g>
   <g stroke="null" id="svg_41">
    <path stroke="null" id="svg_42" d="m72.370908,24.990676c1.225242,0.882105 2.35542,1.901732 3.390778,3.058881c2.924207,4.377131 3.581772,9.092906 1.972816,14.147325c-0.12848,0.758985 -0.066829,1.481263 0.184952,2.166707c-4.623665,2.903388 -9.637825,4.708893 -15.042726,5.416769c-2.006108,0.268417 -4.019983,0.417155 -6.04175,0.446087c-0.026386,-0.209533 0.014796,-0.400713 0.123301,-0.57354c0.739683,-0.191053 1.43843,-0.488401 2.096117,-0.892174c4.833154,-0.645169 9.271991,-2.344505 13.316511,-5.098135c1.536331,-1.162375 2.707691,-2.628089 3.514079,-4.397142c0.204187,-0.632169 0.389138,-1.269436 0.554855,-1.911801c1.681456,-0.978587 1.619806,-1.870761 -0.184952,-2.676521c-0.061651,-0.19118 -0.123301,-0.38236 -0.184952,-0.57354c1.257177,-1.671806 0.846092,-2.585264 -1.23301,-2.740248c-0.91736,-1.574814 -2.027069,-2.997958 -3.329128,-4.269688c1.073582,-0.076472 2.05999,0.199719 2.959225,0.828447c0.301594,-0.118149 0.404304,-0.330614 0.308253,-0.637267c-1.313649,-0.876115 -2.731611,-1.152306 -4.253886,-0.828447c-0.424525,0.20622 -0.794429,0.482411 -1.109709,0.828447c-0.539689,-1.10107 -0.252027,-1.844633 0.863107,-2.230434c0.697514,-0.063599 1.396261,-0.084884 2.096117,-0.063727z" fill="#fdfcfc"/>
   </g>
   <g stroke="null" id="svg_43">
    <path stroke="null" id="svg_44" d="m61.273816,27.284837c0.583584,0.630384 1.302922,0.927733 2.157768,0.892174c0.964461,-0.190415 1.930278,-0.381595 2.897574,-0.57354c0.678772,-0.101453 1.336337,-0.016441 1.972816,0.254907c0.382356,0.250573 0.772851,0.484323 1.17136,0.700994c0.259055,-0.421616 0.567308,-0.825261 0.924758,-1.210807c0.216517,-0.017843 0.421936,0.045883 0.616505,0.19118c7.173654,7.63382 6.063945,13.645286 -3.329128,18.034653c-1.132027,0.475019 -2.282919,0.899948 -3.452429,1.274534c-2.42866,0.6091 -4.853498,1.203925 -7.274761,1.784347c-4.77286,1.203032 -8.369181,-0.390135 -10.78884,-4.779502c-0.677909,-1.229415 -1.212172,-2.503949 -1.602913,-3.823601c1.202555,1.243818 2.476748,2.390898 3.822332,3.441241c2.022137,-1.204434 4.015545,-2.457683 5.9801,-3.759875c1.668756,-1.26472 2.840116,-2.900329 3.514079,-4.906955c0.337722,-1.331888 -0.01159,-2.415242 -1.048059,-3.250061c-1.143494,-0.63459 -2.335321,-1.144404 -3.57573,-1.529441c1.027837,-0.573413 2.014246,-1.21068 2.959225,-1.911801c0.49493,-0.064364 0.947075,0.063089 1.356311,0.38236c1.133013,0.13115 2.201663,-0.081315 3.205827,-0.637267c0.190007,-0.174739 0.35449,-0.365919 0.493204,-0.57354z" fill="#fdfdfd"/>
   </g>
   <g stroke="null" id="svg_45">
    <path stroke="null" id="svg_46" d="m48.080606,30.088811c2.995105,-0.285878 5.78997,0.330104 8.38447,1.848074c0.267193,0.276191 0.534263,0.552255 0.801457,0.828447c0.276318,1.444047 0.029716,2.803592 -0.739806,4.078508c-0.633027,0.781926 -1.311183,1.525489 -2.034467,2.230434c-1.972447,1.359673 -3.986446,2.655364 -6.04175,3.887328c-1.272343,-1.251465 -2.525945,-2.525999 -3.760681,-3.823601c-0.626493,-1.16811 -1.28418,-2.315191 -1.972816,-3.441241c-1.314019,-2.931683 -0.430321,-4.652303 2.650972,-5.161862c0.919209,-0.168876 1.823376,-0.317486 2.712623,-0.446087z" fill="#e30100"/>
   </g>
   <g stroke="null" id="svg_47">
    <path stroke="null" id="svg_48" d="m47.217498,30.726078c1.157057,-0.040275 2.307949,0.023451 3.452429,0.19118c0.593325,0.126051 1.10712,0.402243 1.541263,0.828447c0.070405,0.524471 -0.155729,0.843104 -0.678156,0.9559c-1.568019,0.296584 -3.088691,0.126561 -4.562138,-0.509814c-0.696774,-0.624522 -0.614532,-1.11305 0.246602,-1.465714z" fill="#fff6f5"/>
   </g>
   <g stroke="null" id="svg_49">
    <path stroke="null" id="svg_50" opacity="0.998" d="m14.296124,32.255518c1.499341,-0.297604 2.752942,0.127198 3.760681,1.274534c0.333776,0.626561 0.683211,1.242543 1.048059,1.848074c4.53008,-0.074178 6.194644,2.156256 4.993692,6.691302c-0.802196,1.072393 -1.850255,1.773386 -3.144176,2.102981c-2.3532,0.556844 -4.737102,0.875477 -7.15146,0.9559c-0.231066,0.01402 -0.416018,-0.070864 -0.554855,-0.254907c-1.252615,-2.292376 -2.197939,-4.713991 -2.835924,-7.264843c-0.2921,-1.596099 0.139453,-2.934359 1.294661,-4.014781c0.807005,-0.58705 1.670112,-1.033137 2.589322,-1.33826z" fill="#fefefd"/>
   </g>
   <g stroke="null" id="svg_51">
    <path stroke="null" id="svg_52" d="m75.330133,32.128065c0.587776,-0.018991 0.875437,0.278358 0.863107,0.892174c-0.205543,0 -0.410962,0 -0.616505,0c-0.117013,-0.285113 -0.199254,-0.582589 -0.246602,-0.892174z" fill="#e2e2e2"/>
   </g>
   <g stroke="null" id="svg_53">
    <path stroke="null" id="svg_54" opacity="0.999" d="m76.316541,35.696759c0.494314,-0.061942 0.720325,0.150395 0.678156,0.637267c-0.615642,0.36184 -0.841653,0.149375 -0.678156,-0.637267z" fill="#e1e1e1"/>
   </g>
   <g stroke="null" id="svg_55">
    <path stroke="null" id="svg_56" d="m65.835954,38.245827c0.679019,0.127708 1.110572,0.552638 1.294661,1.274534c0.182732,1.043716 -0.207762,1.404791 -1.17136,1.083354c-0.355477,-0.331634 -0.56102,-0.735151 -0.616505,-1.210807c0.450665,-0.003569 0.779509,0.208896 0.986408,0.637267c0.265097,-0.585776 0.100737,-0.925694 -0.493204,-1.019627c0,-0.254907 0,-0.509814 0,-0.76472z" fill="#151515"/>
   </g>
   <g stroke="null" id="svg_57">
    <path stroke="null" id="svg_58" d="m62.013622,40.412534c0.742149,0.215906 1.091461,0.72572 1.048059,1.529441c-0.513795,0.797731 -1.089118,0.840173 -1.726214,0.127453c-0.164853,-0.449401 -0.226504,-0.916645 -0.184952,-1.401987c0.205543,0 0.410962,0 0.616505,0c-0.020221,0.342467 0.00037,0.682385 0.061651,1.019627c0.136864,0.195896 0.321816,0.28078 0.554855,0.254907c-0.131562,-0.513892 -0.254863,-1.023706 -0.369903,-1.529441z" fill="#131313"/>
   </g>
   <g stroke="null" id="svg_59">
    <path stroke="null" id="svg_60" d="m98.140823,52.902966c0,0.169895 0,0.339918 0,0.509814c-8.22011,0 -16.440096,0 -24.660206,0c-0.041059,0 -0.082242,0 -0.123301,0c0,-1.019627 0,-2.039254 0,-3.058881c1.220557,-0.672571 2.49475,-1.288554 3.822332,-1.848074c3.623077,-2.02345 6.705603,-4.721128 9.247577,-8.09329c2.912987,4.76408 6.570958,8.821303 10.973792,12.171798c0.211708,0.1987 0.45831,0.304868 0.739806,0.318633z" fill="#fd8f00"/>
   </g>
   <g stroke="null" id="svg_61">
    <path stroke="null" id="svg_62" d="m64.356341,41.814522c0.708364,0.051874 1.160386,0.434234 1.356311,1.14708c-0.188281,0.72521 -0.640426,0.958959 -1.356311,0.700994c-0.447336,-0.228396 -0.734997,-0.589472 -0.863107,-1.083354c0.041059,-0.212465 0.16436,-0.339918 0.369903,-0.38236c0.208132,0.194876 0.372492,0.428626 0.493204,0.700994c0.188034,0.1286 0.393577,0.192327 0.616505,0.19118c-0.205543,-0.424802 -0.410962,-0.849732 -0.616505,-1.274534z" fill="#141414"/>
   </g>
   <g stroke="null" id="svg_63">
    <path stroke="null" id="svg_64" d="m73.357317,50.353898c0,1.019627 0,2.039254 0,3.058881c-4.685562,0.021285 -9.371002,0 -14.056317,-0.063727c4.825262,-0.322075 9.510702,-1.320417 14.056317,-2.995154z" fill="#fdfdfd"/>
   </g>
   <g stroke="null" id="svg_65">
    <path stroke="null" id="svg_66" d="m98.387425,53.030419c0,0.297349 0,0.594825 0,0.892174c-0.041059,0 -0.082242,0 -0.123301,0c0,-0.085011 0,-0.169895 0,-0.254907c-8.261169,-0.085011 -16.522338,-0.169895 -24.783507,-0.254907c8.22011,0 16.440096,0 24.660206,0c0.082242,-0.127453 0.16436,-0.254907 0.246602,-0.38236z" fill="#5b3306"/>
   </g>
   <g stroke="null" id="svg_67">
    <path stroke="null" id="svg_68" d="m98.264124,53.667686c0,0.085011 0,0.169895 0,0.254907c-13.933016,0 -27.866033,0 -41.799049,0c0,-0.042442 0,-0.085011 0,-0.127453c13.941647,0.042187 27.874664,-0.000255 41.799049,-0.127453z" fill="#650000"/>
   </g>
  </g>
 </g>
</svg>